<svg width="140" height="84" viewBox="0 0 140 84" fill="none" xmlns="http://www.w3.org/2000/svg">
<path fill="#fff" d="M100.522 26.396C100.015 26.0752 99.5716 26.0344 99.105 25.8944C98.4751 25.702 98.2768 24.9321 98.0436 24.8446C97.577 24.6638 97.1396 25.3812 96.8538 25.2879C96.568 25.1946 96.4514 24.2556 96.2239 24.1681C95.769 23.999 95.285 24.7222 94.9934 24.623C94.7076 24.5297 94.5559 23.6024 94.3227 23.5208C93.8503 23.3458 93.3662 24.0981 93.0804 24.0048C92.7946 23.9115 92.7188 22.9492 92.4855 22.8617C91.984 22.6693 91.5174 23.4333 91.0742 23.3633C90.7884 23.3166 90.1702 23.2175 89.3595 22.6693C89.1262 22.5118 88.6422 22.1269 88.6072 22.1094C88.5255 22.0802 88.3156 22.0277 88.3681 22.4476C88.4847 23.4333 90.1819 24.139 92.124 24.6988C94.0661 25.2587 96.0373 25.8011 97.2096 26.3435C97.9386 26.6759 98.2477 27.0783 97.9852 27.4691C97.7811 27.7724 97.2854 27.7899 96.743 27.5333C96.1598 27.2533 96.1015 26.7984 95.734 26.7109C95.285 26.6059 94.7192 27.4574 94.3635 27.3758C93.9086 27.2708 93.8561 26.291 93.4537 26.1802C92.9171 26.0344 92.3222 26.8626 91.9723 26.7867C91.6166 26.7168 91.4882 25.667 91.15 25.5795C90.5901 25.4337 90.0127 26.3027 89.6628 26.2269C89.307 26.151 89.1146 25.1246 88.8171 25.0021C88.2573 24.7747 87.5049 25.6203 86.7292 25.2121C84.2156 23.5149 84.6997 22.6401 82.7809 22.0744C81.7894 21.7828 80.553 22.1385 79.8298 22.2144C78.1269 22.3893 78.1969 20.9196 78.1969 20.9196C78.6926 21.0363 79.3808 21.3454 80.6522 20.873C82.0285 20.3656 82.7926 20.2723 84.583 20.873C86.0935 21.3804 86.9917 20.9255 87.5224 20.7913C87.7849 20.7213 87.9831 20.5814 88.473 20.8963C88.9629 21.2054 89.4295 21.5495 89.6745 21.4329C90.0419 21.2521 89.9136 20.2606 90.5493 20.0506C90.8409 19.9515 91.6399 20.7505 91.984 20.6164C92.3339 20.4822 92.2231 19.4441 92.8646 19.2341C93.1562 19.1408 93.9552 19.934 94.3052 19.8057C94.6551 19.6716 94.5501 18.6334 95.1858 18.4177C95.4774 18.3243 96.2764 19.1175 96.6205 18.9892C96.9704 18.8551 96.8655 17.8111 97.5012 17.6012C97.7928 17.5078 98.5918 18.3068 98.9359 18.1727C99.2858 18.0327 99.2333 17.7703 99.5132 17.0646C99.5657 16.9246 99.6707 16.7905 99.8107 16.6738C100.201 16.3531 100.79 15.6707 100.441 14.9067C100.126 14.2185 99.4782 14.236 98.0494 14.5335C96.848 14.7842 89.4003 16.4172 89.4003 16.4172C88.2398 14.2652 87.4524 15.6882 85.7261 15.4783C84.6355 15.3441 82.8684 14.2302 80.0748 16.8138C78.5701 16.3881 77.2462 16.7672 76.2548 17.3212C74.5809 16.6389 71.3791 14.9942 65.302 14.9942C63.5816 14.9942 59.4816 15.3325 52.9554 17.0529C51.2875 17.4962 49.7594 17.397 49.3862 16.4056C49.0013 15.3675 50.3427 14.2827 52.8621 13.0696C59.1258 10.0719 63.3075 10.7776 71.7232 6.316C76.2373 3.93067 76.5289 1.12542 76.5289 0.448894C76.5289 -0.0176759 76.0565 -0.169311 75.7824 0.209777C74.266 2.32684 73.8753 2.15187 73.4029 1.67947C72.773 1.0496 72.3472 2.05273 71.6649 2.55429C71.1517 2.93921 71.0467 2.47847 70.6268 2.20436C69.9152 1.74362 69.3145 3.10251 68.7022 3.37662C67.9906 3.69738 67.8623 3.34162 67.6232 3.09084C67.4541 2.91005 67.145 2.91588 66.9292 3.12584C65.4945 4.49055 65.2845 4.33308 64.853 3.87818C64.5322 3.53992 64.3631 3.30663 63.4299 4.2456C62.8934 4.78799 61.9952 5.43535 61.7269 4.753C61.4528 4.07064 61.2196 3.67405 59.9015 4.8813C59.12 5.59282 58.5893 5.65114 58.356 5.31288C58.1169 4.97462 58.1577 4.05314 56.9213 5.02127C55.819 5.89026 55.2591 6.41515 54.8975 5.57533C54.5476 4.76466 53.7311 5.44702 53.1129 6.03606C52.7863 6.34517 52.2498 7.08001 51.8182 6.3335C51.3866 5.59282 50.6984 6.35683 49.8061 7.2958C49.3045 7.82069 48.9721 7.59324 48.4764 7.24331C47.9048 6.83506 47.3041 8.29309 46.4818 9.16208C46.3243 9.30788 46.1027 9.41286 45.6011 9.06293C44.9596 8.61969 43.939 10.8767 43.6474 11.4308C43.175 12.3231 42.6501 11.1975 42.1019 12.0023C40.813 13.8861 39.4366 15.974 39.0458 19.6774C38.5793 24.1098 40.2181 27.714 41.8861 29.0438C41.8861 29.0438 41.682 29.5395 41.4487 30.1635C40.9821 31.4116 40.7896 33.0329 41.3904 34.1702C41.9677 35.2666 43.3208 37.0921 43.8282 35.3716C44.0731 34.5318 44.3006 34.5785 45.1112 35.15C46.3302 36.0073 46.0327 34.4443 46.2777 33.9777C46.4468 33.6511 46.6626 33.5287 47.6657 34.1877C48.2431 34.561 48.4297 34.0536 48.5989 33.3362C49.1296 31.1258 48.0856 30.5835 47.0533 30.3793C46.301 30.2277 45.5137 30.356 45.5137 30.356C47.1583 27.8482 47.3624 26.4835 45.5137 25.2179C45.7878 25.0779 46.0152 25.1537 46.2485 25.2529C46.7034 25.4454 47.0825 25.7953 47.3216 26.2152C47.5782 26.6643 47.9923 27.6674 47.1467 29.452C47.5024 29.452 48.8613 29.5395 49.4795 30.9334C50.2843 31.1958 55.4924 31.6041 57.7728 31.2425C58.6009 31.1083 58.9742 30.3618 59.7965 29.592C60.6947 28.7522 61.7444 27.8424 62.6776 28.5247C61.0854 29.1779 59.9657 30.4143 59.9657 31.9832C59.9657 33.1612 60.4497 33.6336 61.2954 34.3335C62.0594 34.9692 62.2927 35.9723 62.5726 36.7538C62.9284 37.7453 63.6749 37.7803 63.844 36.8355C64.0715 35.5291 64.468 35.774 64.9754 36.3281C65.5878 37.0046 66.066 36.8996 66.0719 35.9257C66.0719 35.0042 66.3518 34.5493 67.3783 35.6166C67.7982 36.0481 68.2997 36.0306 68.2881 35.0917C68.2764 33.9427 68.7955 34.0536 69.437 34.5435C69.6586 34.7126 69.8161 34.8409 69.9386 34.8292C70.446 34.8001 70.7784 33.8144 70.3876 33.0388C70.1952 32.648 69.9094 32.0648 67.2791 31.5283C66.416 31.3533 66.5676 30.7526 66.5676 30.7526C72.9829 31.0617 78.4243 30.2569 81.9994 28.0815C86.3968 29.1429 92.8238 29.2421 94.935 29.2129C97.0463 29.1896 98.6559 29.0904 99.9798 28.4606C101.374 27.7899 101.164 26.7751 100.516 26.3727L100.522 26.396ZM87.2483 16.4114C87.3766 16.0906 87.6391 15.869 87.9132 15.869C88.4031 15.869 88.6363 16.4056 88.6363 16.5689L87.4524 16.8313C87.12 16.8955 87.1317 16.7147 87.2483 16.4114ZM84.2039 16.3181C85.0263 16.3181 85.5278 16.948 85.6211 17.2337C85.6211 17.2337 84.3906 17.5078 83.854 17.6186C83.5041 17.6945 83.2708 17.5428 83.2358 17.2687C83.1891 16.9655 83.5216 16.3123 84.2039 16.3181ZM50.191 8.78882C50.7567 8.51471 51.3516 8.32225 51.9698 8.20561C52.0923 8.18228 52.1739 8.25227 52.1448 8.34558C52.0456 8.748 51.9523 9.16208 51.8648 9.58199C51.8415 9.68697 51.7482 9.73363 51.649 9.68697C51.1941 9.46535 50.7101 9.22623 50.1969 8.98128C50.086 8.92879 50.0802 8.84131 50.1969 8.78882H50.191ZM47.4966 10.0544C48.0565 9.78611 48.6513 9.58782 49.2695 9.47118C49.392 9.44785 49.4678 9.51784 49.4445 9.61115C49.3454 10.0136 49.2462 10.4218 49.1646 10.8476C49.1412 10.9525 49.0479 10.9992 48.9488 10.9525C48.488 10.7309 48.0098 10.4918 47.4966 10.2527C47.3858 10.2002 47.3799 10.1069 47.4966 10.0544ZM48.6513 12.848C48.7738 12.8246 48.8555 12.8888 48.8263 12.9879C48.7272 13.3904 48.6338 13.8044 48.5405 14.2244C48.523 14.3293 48.4239 14.376 48.3306 14.3293C47.8757 14.1019 47.3916 13.8686 46.8784 13.6236C46.7676 13.5712 46.7617 13.4837 46.8784 13.4254C47.4383 13.1571 48.039 12.9588 48.6513 12.848ZM47.5257 15.1925C47.4266 15.5949 47.3333 16.0032 47.24 16.4289C47.2166 16.5339 47.1233 16.5805 47.0242 16.5339C46.5693 16.3123 46.0852 16.0731 45.572 15.834C45.4612 15.7815 45.4612 15.6941 45.572 15.6357C46.1319 15.3675 46.7326 15.1692 47.3508 15.0583C47.4674 15.035 47.5491 15.0992 47.5257 15.1983V15.1925ZM45.0821 11.6757C45.642 11.4016 46.2368 11.2092 46.8609 11.0925C46.9834 11.0692 47.0592 11.1333 47.0358 11.2325C46.9367 11.6349 46.8434 12.0431 46.7559 12.4689C46.7326 12.5739 46.6393 12.6205 46.5401 12.5739C46.0852 12.3522 45.6011 12.1131 45.0879 11.8682C44.9771 11.8157 44.9771 11.7282 45.0879 11.6757H45.0821ZM43.2333 13.7986C43.799 13.5245 44.3939 13.332 45.0121 13.2212C45.1346 13.1979 45.2162 13.2621 45.1929 13.3612C45.0879 13.7636 45.0004 14.1777 44.9071 14.5976C44.8838 14.7026 44.7905 14.7492 44.6913 14.7026C44.2364 14.481 43.7582 14.2419 43.2391 13.9969C43.1283 13.9444 43.1283 13.8569 43.2391 13.8044L43.2333 13.7986ZM42.5334 16.2364C43.0992 15.9682 43.694 15.7699 44.3122 15.6532C44.4347 15.6299 44.5164 15.6941 44.4872 15.7932C44.3881 16.1956 44.2948 16.6097 44.2073 17.0296C44.1839 17.1346 44.0906 17.1812 43.9915 17.1346C43.5307 16.913 43.0525 16.6738 42.5393 16.4347C42.4285 16.3822 42.4285 16.2948 42.5393 16.2423L42.5334 16.2364ZM42.8484 18.8959C42.7376 18.8434 42.7376 18.7559 42.8484 18.6976C43.4083 18.4235 44.009 18.231 44.6272 18.1144C44.7497 18.0911 44.8313 18.1552 44.808 18.2544C44.7088 18.6568 44.6097 19.0708 44.5222 19.4908C44.4989 19.5957 44.4056 19.6424 44.3064 19.5957C43.8515 19.3741 43.3674 19.135 42.8542 18.8959H42.8484ZM46.0036 21.8644C45.9802 21.9694 45.8869 22.0161 45.7878 21.9636C45.3329 21.742 44.8488 21.5028 44.3356 21.2579C44.2248 21.2054 44.2248 21.1179 44.3356 21.0596C44.8955 20.7913 45.4962 20.593 46.1144 20.4822C46.2368 20.4589 46.3185 20.523 46.2952 20.6222C46.1902 21.0246 46.0969 21.4387 46.0094 21.8586L46.0036 21.8644ZM45.8519 18.231C45.7411 18.1785 45.7411 18.0911 45.8519 18.0386C46.4118 17.7645 47.0125 17.5662 47.6307 17.4554C47.7474 17.432 47.829 17.4962 47.8057 17.5953C47.7065 17.9977 47.6132 18.4118 47.5257 18.8317C47.5024 18.9367 47.4091 18.9834 47.31 18.9309C46.8551 18.7093 46.371 18.4701 45.8578 18.2252L45.8519 18.231ZM48.6455 23.2292C48.6222 23.3341 48.5289 23.3808 48.4297 23.3341C47.9748 23.1125 47.4908 22.8734 46.9775 22.6284C46.8667 22.576 46.8609 22.4826 46.9775 22.4301C47.5374 22.1619 48.1381 21.9636 48.7563 21.8469C48.8788 21.8236 48.9604 21.8936 48.9313 21.9869C48.8321 22.3893 48.7388 22.8034 48.6455 23.2233V23.2292ZM49.2287 20.6397C49.2054 20.7447 49.1121 20.7913 49.0129 20.7447C48.558 20.5172 48.074 20.2839 47.5607 20.039C47.4499 19.9865 47.4499 19.899 47.5607 19.8407C48.1206 19.5724 48.7213 19.3741 49.3395 19.2633C49.4562 19.24 49.5378 19.3041 49.5145 19.4033C49.4154 19.8057 49.322 20.2198 49.2287 20.6397ZM51.8532 21.9111C51.754 22.3135 51.6607 22.7276 51.5732 23.1475C51.5499 23.2466 51.4566 23.2991 51.3574 23.2466C50.9025 23.025 50.4185 22.7859 49.9052 22.541C49.7944 22.4885 49.7886 22.401 49.9052 22.3427C50.4651 22.0744 51.0658 21.8761 51.6782 21.7595C51.8007 21.7361 51.8823 21.8061 51.859 21.8994L51.8532 21.9111ZM51.9757 20.523C51.5207 20.3014 51.0367 20.0623 50.5176 19.8232C50.4068 19.7707 50.4068 19.6774 50.5176 19.6249C51.0775 19.3566 51.6782 19.1583 52.2964 19.0417C52.4189 19.0242 52.5005 19.0825 52.4772 19.1817C52.3722 19.5841 52.2848 19.9982 52.1914 20.4181C52.1681 20.523 52.0748 20.5697 51.9757 20.5172V20.523ZM54.2618 23.8415C54.1627 24.2439 54.0694 24.6522 53.9819 25.0721C53.9586 25.1771 53.8653 25.2237 53.7661 25.1771C53.3112 24.9555 52.8271 24.7163 52.3139 24.4714C52.2031 24.4189 52.2031 24.3314 52.3139 24.2789C52.8796 24.0048 53.4745 23.8124 54.0927 23.6957C54.2152 23.6724 54.2968 23.7365 54.2677 23.8415H54.2618ZM54.8451 21.1704C54.7459 21.5728 54.6526 21.9811 54.5593 22.4068C54.536 22.506 54.4368 22.5585 54.3435 22.506C53.8886 22.2843 53.4045 22.0452 52.8913 21.8061C52.7805 21.7536 52.7805 21.6661 52.8913 21.6137C53.4512 21.3454 54.0519 21.1471 54.6643 21.0304C54.7867 21.0071 54.8684 21.0771 54.8451 21.1762V21.1704ZM55.2008 19.5841C55.1775 19.6891 55.0842 19.7357 54.985 19.6891C54.5243 19.4674 54.0461 19.2341 53.527 18.9834C53.4162 18.9367 53.4103 18.8434 53.527 18.7909C54.0927 18.5168 54.6876 18.3243 55.3058 18.2077C55.4283 18.1844 55.5041 18.2544 55.4808 18.3535C55.3816 18.7559 55.2825 19.1642 55.195 19.5841H55.2008ZM57.0204 24.1914C56.9971 24.2964 56.9038 24.3373 56.8046 24.2964C56.3497 24.069 55.8657 23.8357 55.3524 23.5907C55.2416 23.5383 55.2358 23.4508 55.3524 23.3924C55.9123 23.1183 56.513 22.9259 57.1312 22.8092C57.2537 22.7917 57.3354 22.8501 57.3062 22.9492C57.2071 23.3516 57.1137 23.7657 57.0204 24.1856V24.1914ZM57.5978 21.602C57.5745 21.707 57.4812 21.7536 57.382 21.707C56.9271 21.4795 56.4431 21.2462 55.9298 21.0013C55.819 20.9488 55.8132 20.8613 55.9298 20.8088C56.4897 20.5347 57.0904 20.3364 57.7028 20.2256C57.8253 20.2023 57.9069 20.2664 57.8836 20.3656C57.7844 20.768 57.6853 21.1821 57.5978 21.602ZM58.0002 18.995C57.5395 18.7734 57.0613 18.5343 56.548 18.2893C56.4372 18.2369 56.4314 18.1494 56.548 18.0969C57.1137 17.8228 57.7086 17.6303 58.3268 17.5137C58.4493 17.4903 58.5251 17.5545 58.5018 17.6595C58.4026 18.0561 58.3093 18.4701 58.2218 18.8959C58.2044 19.0009 58.1052 19.0475 58.0061 19.0009L58.0002 18.995ZM60.4031 22.3018C60.3039 22.7043 60.2106 23.1125 60.1231 23.5383C60.0998 23.6432 60.0065 23.6899 59.9073 23.6432C59.4466 23.4216 58.9684 23.1825 58.4493 22.9375C58.3385 22.8851 58.3385 22.7976 58.4493 22.7451C59.015 22.471 59.6099 22.2727 60.2281 22.1619C60.3506 22.1385 60.4322 22.2085 60.4031 22.3018ZM60.9688 19.7124C60.8696 20.1148 60.7763 20.523 60.6888 20.9488C60.6655 21.0538 60.5664 21.1004 60.473 21.0479C60.0123 20.8263 59.5341 20.5872 59.0208 20.3481C58.91 20.2956 58.9042 20.2081 59.0208 20.1498C59.5866 19.8757 60.1814 19.6832 60.7996 19.5666C60.9221 19.5491 60.9979 19.6132 60.9746 19.7066L60.9688 19.7124ZM61.0563 18.4818C60.5955 18.2602 60.1173 18.0211 59.5982 17.7819C59.4874 17.7295 59.4874 17.6361 59.5982 17.5837C60.1639 17.3154 60.7588 17.1171 61.377 17.0063C61.4937 16.9829 61.5753 17.0471 61.552 17.1462C61.4528 17.5487 61.3595 17.9627 61.272 18.3827C61.2487 18.4818 61.1554 18.5285 61.0563 18.4818ZM63.4124 21.9927C63.3133 22.3952 63.22 22.8034 63.1325 23.2292C63.1092 23.3283 63.0158 23.375 62.9167 23.3283C62.4618 23.1067 61.9777 22.8676 61.4645 22.6284C61.3537 22.576 61.3537 22.4885 61.4645 22.436C62.0302 22.1619 62.6193 21.9636 63.2433 21.8528C63.3658 21.8294 63.4416 21.8994 63.4183 21.9927H63.4124ZM63.9723 19.4266C63.8732 19.829 63.7799 20.2373 63.6924 20.663C63.6632 20.7622 63.5757 20.8088 63.4766 20.7622C63.0217 20.5405 62.5376 20.3014 62.0244 20.0623C61.9136 20.0098 61.9136 19.9223 62.0244 19.864C62.5843 19.5899 63.185 19.3974 63.8032 19.2808C63.9257 19.2575 64.0073 19.3216 63.9781 19.4208L63.9723 19.4266ZM64.2639 18.1377C64.2464 18.2427 64.1473 18.2893 64.054 18.2427C63.5932 18.0152 63.115 17.7819 62.6018 17.537C62.491 17.4845 62.4851 17.397 62.6018 17.3445C63.1675 17.0704 63.7624 16.878 64.3806 16.7613C64.503 16.738 64.5789 16.8022 64.5555 16.9071C64.4564 17.3095 64.3631 17.7178 64.2698 18.1435L64.2639 18.1377ZM66.3926 22.1094C66.2935 22.5118 66.2002 22.9259 66.1127 23.3458C66.0894 23.4508 65.9961 23.4974 65.8969 23.4508C65.442 23.2291 64.9579 22.99 64.4447 22.7451C64.3339 22.6926 64.3339 22.5993 64.4447 22.5468C65.0046 22.2785 65.6053 22.0802 66.2177 21.9636C66.3402 21.9403 66.4218 22.0044 66.3985 22.1036L66.3926 22.1094ZM66.9642 19.5083C66.865 19.9107 66.7717 20.3189 66.6842 20.7447C66.6609 20.8496 66.5676 20.8963 66.4685 20.8496C66.0136 20.628 65.5295 20.3889 65.0163 20.144C64.9055 20.0915 64.9055 19.9982 65.0163 19.9457C65.5762 19.6774 66.1769 19.4791 66.7951 19.3683C66.9175 19.345 66.9934 19.4091 66.97 19.5141L66.9642 19.5083ZM67.5474 16.9655C67.4483 17.3679 67.3549 17.7819 67.2675 18.2019C67.2441 18.3068 67.1508 18.3535 67.0517 18.3068C66.5968 18.0794 66.1127 17.8461 65.5995 17.6012C65.4887 17.5487 65.4828 17.4612 65.5995 17.4029C66.1594 17.1288 66.7601 16.9363 67.3783 16.8197C67.5007 16.8022 67.5824 16.8663 67.5532 16.9655H67.5474ZM69.5711 21.2929C69.5537 21.3979 69.4545 21.4387 69.3554 21.3979C68.9005 21.1762 68.4164 20.9371 67.9032 20.6922C67.7924 20.6397 67.7924 20.5522 67.9032 20.4997C68.463 20.2256 69.0638 20.0331 69.6761 19.9165C69.7986 19.899 69.8803 19.9632 69.8569 20.0565C69.7578 20.4589 69.6645 20.873 69.5711 21.2929ZM70.4343 17.4379C70.3352 17.8403 70.2418 18.2544 70.1544 18.6743C70.131 18.7734 70.0377 18.8259 69.9386 18.7734C69.4778 18.5518 68.9996 18.3127 68.4864 18.0677C68.3756 18.0152 68.3756 17.9219 68.4864 17.8694C69.0463 17.6012 69.6411 17.4029 70.2593 17.2921C70.3818 17.2687 70.4635 17.3329 70.4343 17.432V17.4379ZM73.1871 18.4002C73.0879 18.8026 72.9946 19.2167 72.9071 19.6366C72.8838 19.7415 72.7846 19.7882 72.6913 19.7357C72.2364 19.5141 71.7524 19.2808 71.2391 19.03C71.1283 18.9775 71.1283 18.8901 71.2391 18.8376C71.8049 18.5693 72.3997 18.371 73.0121 18.2544C73.1346 18.231 73.2162 18.2952 73.1871 18.3943V18.4002Z"/>
<path fill="#d8341d" d="M108.122 79.7892C110.087 79.9409 112.052 80.1042 114.018 80.2733V45.6597H108.122V79.7834V79.7892ZM13.2797 66.9469L5.59883 45.6655H0V83.2768C1.95959 82.9969 3.92502 82.7286 5.89627 82.472V62.0188L12.7257 81.6322C14.8719 81.3814 17.024 81.1481 19.1818 80.9265V45.6655H13.2856V66.9469H13.2797ZM24.8448 80.3783C30.2804 79.8825 35.7392 79.4801 41.2214 79.1594V73.3506C37.7163 73.5547 34.2229 73.7938 30.7411 74.0679V65.2731C33.0273 65.2498 36.0367 65.1798 38.7019 65.2148V59.406C36.5732 59.406 33.1498 59.4351 30.7411 59.4643V51.5268H41.2214V45.6655H24.8448V80.3783ZM45.0006 51.5268H51.171V78.6928C53.1306 78.617 55.096 78.5586 57.0673 78.5062V51.5268H63.2377V45.6655H45.0006V51.5268ZM67.0169 78.3429H72.9131V64.929H80.9031V59.1202H72.9131V51.5268H83.4751V45.6655H67.0169V78.3429ZM140 45.6655H133.526L129.257 55.5626L125.42 45.6655H119.039L125.892 63.3426L118.41 80.6874C120.48 80.8915 122.544 81.1073 124.609 81.3347L128.96 71.251L133.27 82.367C135.515 82.6528 137.755 82.9561 139.988 83.2768H140L132.319 63.4651L140 45.6655ZM93.1506 45.6655H87.2543V78.6345C92.614 78.8211 97.9446 79.0894 103.263 79.4451V73.6363C99.9042 73.4147 96.5332 73.2223 93.1506 73.0648V45.6655Z"/>
</svg>
